<svg width="21" height="20" viewBox="0 0 21 20" fill="none" xmlns="http://www.w3.org/2000/svg">
<path d="M0.0588379 16.2484C0.0588379 17.2865 0.424826 18.1649 1.1568 18.8835C1.88878 19.6022 2.7738 19.9682 3.81187 19.9815H16.2887C17.3135 19.9815 18.1919 19.6155 18.9238 18.8835C19.6558 18.1515 20.0218 17.2732 20.0218 16.2484V3.77156C20.0218 2.73349 19.6558 1.84846 18.9238 1.11649C18.1919 0.384512 17.3135 0.0185242 16.2887 0.0185242H3.81187C2.7738 0.0185242 1.88878 0.384512 1.1568 1.11649C0.424826 1.84846 0.0588379 2.73349 0.0588379 3.77156V6.26693H2.55421V3.77156C2.55421 3.42554 2.67399 3.13275 2.91354 2.89319C3.1531 2.65364 3.45254 2.5272 3.81187 2.51389H16.2887C16.6214 2.51389 16.9142 2.64033 17.1671 2.89319C17.42 3.14605 17.5397 3.43884 17.5264 3.77156V16.2484C17.5264 16.5944 17.4067 16.8872 17.1671 17.1268C16.9275 17.3663 16.6348 17.4861 16.2887 17.4861H3.81187C3.46585 17.4861 3.16641 17.3663 2.91354 17.1268C2.66068 16.8872 2.5409 16.5944 2.55421 16.2484V13.753H0.0588379L0.0588379 16.2484ZM0.0588379 11.2577H5.04958V13.753L10.0403 10L5.04958 6.26693V8.7623H0.0588379V11.2577Z" fill="#3085FE"/>
</svg>
