<svg width="19" height="19" viewBox="0 0 19 19" fill="none" xmlns="http://www.w3.org/2000/svg">
<path d="M19 15.447C19 16.435 18.6517 17.271 17.955 17.955C17.2583 18.639 16.416 18.9873 15.428 19H3.553C2.57767 19 1.74167 18.6517 1.045 17.955C0.348333 17.2583 0 16.4223 0 15.447V3.572C0 2.584 0.348333 1.74167 1.045 1.045C1.74167 0.348333 2.57767 0 3.553 0H15.428C16.416 0 17.2583 0.348333 17.955 1.045C18.6517 1.74167 19 2.584 19 3.572V5.947H16.625V3.572C16.625 3.24267 16.511 2.964 16.283 2.736C16.055 2.508 15.77 2.38767 15.428 2.375H3.553C3.23633 2.375 2.95767 2.49533 2.717 2.736C2.47633 2.97667 2.36233 3.25533 2.375 3.572V15.447C2.375 15.7763 2.489 16.055 2.717 16.283C2.945 16.511 3.22367 16.625 3.553 16.625H15.428C15.7573 16.625 16.0423 16.511 16.283 16.283C16.5237 16.055 16.6377 15.7763 16.625 15.447V13.072H19V15.447ZM19 10.697H14.25V13.072L9.5 9.5L14.25 5.947V8.322H19V10.697Z" fill="#FF2D55"/>
</svg>
