<svg width="21" height="20" viewBox="0 0 21 20" fill="none" xmlns="http://www.w3.org/2000/svg">
<path d="M4.54299 10H1.28515C0.806623 10 0.418701 10.3879 0.418701 10.8664V19.115C0.418701 19.5936 0.806623 19.9815 1.28515 19.9815H4.54299C5.02152 19.9815 5.40944 19.5936 5.40944 19.115V10.8664C5.40944 10.3879 5.02152 10 4.54299 10Z" fill="#30BEB6"/>
<path d="M12.0291 0.0185242H8.77123C8.29271 0.0185242 7.90479 0.406446 7.90479 0.884971V19.115C7.90479 19.5935 8.29271 19.9815 8.77123 19.9815H12.0291C12.5076 19.9815 12.8955 19.5935 12.8955 19.115V0.884971C12.8955 0.406446 12.5076 0.0185242 12.0291 0.0185242Z" fill="#30BEB6"/>
<path d="M19.5152 6.67282H16.2573C15.7788 6.67282 15.3909 7.06074 15.3909 7.53927V19.115C15.3909 19.5935 15.7788 19.9815 16.2573 19.9815H19.5152C19.9937 19.9815 20.3816 19.5935 20.3816 19.115V7.53927C20.3816 7.06074 19.9937 6.67282 19.5152 6.67282Z" fill="#30BEB6"/>
</svg>
